
<svg xmlns="http://www.w3.org/2000/svg" xmlns:xlink="http://www.w3.org/1999/xlink" viewBox="0 0 74 74" width="74" height="74" fill="none">
  <g opacity="100%">
    <rect filter="url(#filter_dshadow_0_0_0_00000014)" x="0" y="0" width="74" height="74" fill="#274841" rx="24"></rect>
    <svg xmlns="http://www.w3.org/2000/svg" height="44" width="44" viewBox="0 0 24 24" fill="#fff" x="15" y="15">
      <path fill="none" d="M0 0h24v24H0z"></path>
      <path d="M6.36 18.78 6.61 21l1.62-1.54 2.77-7.6c-.68-.17-1.28-.51-1.77-.98l-2.87 7.9zm8.41-7.9c-.49.47-1.1.81-1.77.98l2.77 7.6L17.39 21l.26-2.22-2.88-7.9zM15 8c0-1.3-.84-2.4-2-2.82V3h-2v2.18C9.84 5.6 9 6.7 9 8c0 1.66 1.34 3 3 3s3-1.34 3-3zm-3 1c-.55 0-1-.45-1-1s.45-1 1-1 1 .45 1 1-.45 1-1 1z"></path>
    </svg>
  </g>
  <defs>
    <filter id="filter_dshadow_0_0_0_00000014" color-interpolation-filters="sRGB" filterUnits="userSpaceOnUse">
      <feFlood flood-opacity="0" result="bg-fix"></feFlood>
      <feColorMatrix in="SourceAlpha" type="matrix" values="0 0 0 0 0 0 0 0 0 0 0 0 0 0 0 0 0 0 127 0" result="alpha"></feColorMatrix>
      <feOffset dx="0" dy="0"></feOffset>
      <feGaussianBlur stdDeviation="0"></feGaussianBlur>
      <feComposite in2="alpha" operator="out"></feComposite>
      <feColorMatrix type="matrix" values="0 0 0 0 0 0 0 0 0 0 0 0 0 0 0 0 0 0 0.08 0"></feColorMatrix>
      <feBlend mode="normal" in2="bg-fix" result="bg-fix-filter_dshadow_0_0_0_00000014"></feBlend>
      <feBlend in="SourceGraphic" in2="bg-fix-filter_dshadow_0_0_0_00000014" result="shape"></feBlend>
    </filter>
  </defs>
</svg>