
<svg xmlns="http://www.w3.org/2000/svg" xmlns:xlink="http://www.w3.org/1999/xlink" viewBox="0 0 74 74" width="74" height="74" fill="none">
  <g opacity="100%">
    <rect filter="url(#filter_dshadow_0_0_0_00000014)" x="0" y="0" width="74" height="74" fill="#274841" rx="24"></rect>
    <svg xmlns="http://www.w3.org/2000/svg" viewBox="0 0 512 512" width="44" height="44" fill="#fff" x="15" y="15">
      <path d="M503.7 226.2l-176 151.1c-15.38 13.3-39.69 2.545-39.69-18.16V272.1C132.9 274.3 66.06 312.8 111.4 457.8c5.031 16.09-14.41 28.56-28.06 18.62C39.59 444.6 0 383.8 0 322.3c0-152.2 127.4-184.4 288-186.3V56.02c0-20.67 24.28-31.46 39.69-18.16l176 151.1C514.8 199.4 514.8 216.6 503.7 226.2z"></path>
    </svg>
  </g>
  <defs>
    <filter id="filter_dshadow_0_0_0_00000014" color-interpolation-filters="sRGB" filterUnits="userSpaceOnUse">
      <feFlood flood-opacity="0" result="bg-fix"></feFlood>
      <feColorMatrix in="SourceAlpha" type="matrix" values="0 0 0 0 0 0 0 0 0 0 0 0 0 0 0 0 0 0 127 0" result="alpha"></feColorMatrix>
      <feOffset dx="0" dy="0"></feOffset>
      <feGaussianBlur stdDeviation="0"></feGaussianBlur>
      <feComposite in2="alpha" operator="out"></feComposite>
      <feColorMatrix type="matrix" values="0 0 0 0 0 0 0 0 0 0 0 0 0 0 0 0 0 0 0.08 0"></feColorMatrix>
      <feBlend mode="normal" in2="bg-fix" result="bg-fix-filter_dshadow_0_0_0_00000014"></feBlend>
      <feBlend in="SourceGraphic" in2="bg-fix-filter_dshadow_0_0_0_00000014" result="shape"></feBlend>
    </filter>
  </defs>
</svg>