<!DOCTYPE svg PUBLIC "-//W3C//DTD SVG 1.1//EN" "http://www.w3.org/Graphics/SVG/1.1/DTD/svg11.dtd">
<!-- Uploaded to: SVG Repo, www.svgrepo.com, Transformed by: SVG Repo Mixer Tools -->
<svg width="800px" height="800px" viewBox="-5.1 -5.1 27.20 27.20" version="1.1" xmlns="http://www.w3.org/2000/svg" xmlns:xlink="http://www.w3.org/1999/xlink" fill="#000000">
<g id="SVGRepo_bgCarrier" stroke-width="0">
<rect x="-5.1" y="-5.1" width="27.20" height="27.20" rx="13.6" fill="#7612CE" strokewidth="0"/>
</g>
<g id="SVGRepo_tracerCarrier" stroke-linecap="round" stroke-linejoin="round"/>
<g id="SVGRepo_iconCarrier"> <path d="M2 0v16.902l2.028-2.481 1.503 1.88 1.501-1.875 1.499 1.875 1.5-1.875 1.5 1.875 1.499-1.875 1.97 2.46v-16.886h-13zM14 14.036l-0.97-1.211-1.499 1.875-1.5-1.875-1.5 1.875-1.499-1.875-1.501 1.875-1.495-1.87-1.036 1.268v-13.098h11v13.036zM10.997 4h-6v-1h6v1zM8.997 8h-4v-1h4v1zM11.978 6h-7v-1h7v1zM5 10h7v1h-7v-1z" fill="#ffffff"/> </g>
</svg>