<?xml version="1.0" encoding="utf-8"?><!-- Uploaded to: SVG Repo, www.svgrepo.com, Generator: SVG Repo Mixer Tools -->
<svg fill="#000000" width="800px" height="800px" viewBox="0 0 24 24" id="share-alt-2" data-name="Flat Line" xmlns="http://www.w3.org/2000/svg" class="icon flat-line"><path id="secondary" d="M6,9a3,3,0,1,1-3,3A3,3,0,0,1,6,9Zm9,9a3,3,0,1,0,3-3A3,3,0,0,0,15,18Zm3-9a3,3,0,1,0-3-3A3,3,0,0,0,18,9Z" style="fill: rgb(44, 169, 188); stroke-width: 2;"></path><path id="primary" d="M8.68,13.34l6.62,3.31m-6.62-6L15.3,7.35M6,9a3,3,0,1,1-3,3A3,3,0,0,1,6,9Zm9,9a3,3,0,1,0,3-3A3,3,0,0,0,15,18Zm3-9a3,3,0,1,0-3-3A3,3,0,0,0,18,9Z" style="fill: none; stroke: rgb(0, 0, 0); stroke-linecap: round; stroke-linejoin: round; stroke-width: 2;"></path></svg>